<svg width="28" height="28" viewBox="0 0 28 28" fill="none" xmlns="http://www.w3.org/2000/svg">
<path d="M8 13C8.68421 13 9 13.3158 9 14C9 14.6842 8.68421 15 8 15C7.31579 15 7 14.6842 7 14C7 13.3158 7.31579 13 8 13ZM8 11C6.33333 11 5 12.3333 5 14C5 15.6667 6.33333 17 8 17C9.66667 17 11 15.6667 11 14C11 12.3333 9.66667 11 8 11ZM19 7C19.6842 7 20 7.31579 20 8C20 8.68421 19.6842 9 19 9C18.3158 9 18 8.68421 18 8C18 7.31579 18.3158 7 19 7ZM19 5C17.3333 5 16 6.33333 16 8C16 9.66667 17.3333 11 19 11C20.6667 11 22 9.66667 22 8C22 6.33333 20.6667 5 19 5ZM19 19C19.6842 19 20 19.3158 20 20C20 20.6842 19.6842 21 19 21C18.3158 21 18 20.6842 18 20C18 19.3158 18.3158 19 19 19ZM19 17C17.3333 17 16 18.3333 16 20C16 21.6667 17.3333 23 19 23C20.6667 23 22 21.6667 22 20C22 18.3333 20.6667 17 19 17ZM17.7193 18.1579L10.2281 14.0877L9.2807 15.8421L16.7719 19.9123L17.7193 18.1579ZM10.2281 13.9123L17.7193 9.84211L16.7719 8.08772L9.2807 12.1579L10.2281 13.9123Z" fill="#333333"/>
</svg>
