<svg width="31" height="31" viewBox="0 0 31 31" fill="none" xmlns="http://www.w3.org/2000/svg">
<path d="M14.6419 2.90964C15.1313 2.47462 15.8687 2.47462 16.3581 2.90964L27.9831 13.243C28.5163 13.7169 28.5643 14.5333 28.0904 15.0665C27.6165 15.5997 26.8 15.6477 26.2669 15.1738L25.8333 14.7884V24.5417C25.8333 25.9684 24.6767 27.125 23.25 27.125H7.74999C6.32326 27.125 5.16666 25.9684 5.16666 24.5417V14.7884L4.73313 15.1738C4.19995 15.6477 3.38353 15.5997 2.90959 15.0665C2.43565 14.5333 2.48368 13.7169 3.01686 13.243L14.6419 2.90964ZM7.74999 12.4921V24.5417H11.625V18.0834C11.625 17.37 12.2033 16.7917 12.9167 16.7917H18.0833C18.7967 16.7917 19.375 17.37 19.375 18.0834V24.5417H23.25V12.4921L15.5 5.60323L7.74999 12.4921ZM16.7917 24.5417V19.375H14.2083V24.5417H16.7917Z" fill="#0D0D0D"/>
</svg>
